<svg width="1350.080029296875px" height="263.6099975585937px" xmlns="http://www.w3.org/2000/svg" viewBox="-425.0400146484375 -56.80499877929685 1350.080029296875 263.6099975585937" style="background: rgba(0, 0, 0, 0);" preserveAspectRatio="xMidYMid"><defs><filter id="editing-extrude-glow"><feFlood flood-color="#333333" result="flood-1"></feFlood><feMorphology operator="erode" radius="1" in="SourceAlpha" result="erode"></feMorphology><feComposite operator="in" in="flood-1" in2="erode" result="comp1"></feComposite><feConvolveMatrix order="3,3" divisor="1" in="comp1" result="convolve" kernelMatrix="0 0 0 1 1 1 0 0 0"></feConvolveMatrix><feOffset dx="-3" dy="0" in="convolve" result="extrude"></feOffset><feComposite operator="in" in="flood-1" in2="extrude" result="comp-extrude"></feComposite><feFlood flood-color="#000000" result="flood-2"></feFlood><feComposite operator="in" in="flood-2" in2="SourceAlpha" result="comp2"></feComposite><feMorphology operator="dilate" radius="1" in="comp2" result="dilate"></feMorphology><feOffset dx="-4.5" dy="0" in="dilate" result="offset"></feOffset><feGaussianBlur in="offset" stdDeviation="5.8" result="blur"></feGaussianBlur><feComponentTransfer in="blur" result="shadow"><feFuncA type="linear" slope="0.8" intercept="-0.2"></feFuncA></feComponentTransfer><feMerge><feMergeNode in="shadow"></feMergeNode><feMergeNode in="comp-extrude"></feMergeNode><feMergeNode in="SourceGraphic"></feMergeNode></feMerge></filter></defs><g filter="url(#editing-extrude-glow)"><g transform="translate(-236.4418664574623, 145.91500091552734)"><path d="M62.68-71.15L62.68-71.15L62.68-71.15Q64.99-75.77 64.99-80.08L64.99-80.08L64.99-80.08Q64.99-84.39 64.53-86.78L64.53-86.78L64.53-86.78Q64.06-89.17 62.99-91.01L62.99-91.01L62.99-91.01Q60.68-95.02 56.06-95.02L56.06-95.02L56.06-95.02Q50.36-95.02 45.74-90.86L45.74-90.86L45.74-90.86Q40.81-86.55 40.81-79.77L40.81-79.77L40.81-79.77Q40.81-75.46 43.81-72.15L43.81-72.15L43.81-72.15Q46.82-68.84 51.44-65.76L51.44-65.76L51.44-65.76Q56.06-62.68 61.29-59.60L61.29-59.60L61.29-59.60Q66.53-56.52 71.15-52.82L71.15-52.82L71.15-52.82Q81.77-44.35 81.77-32.96L81.77-32.96L81.77-32.96Q81.77-25.26 77.69-18.71L77.69-18.71L77.69-18.71Q73.61-12.17 66.84-7.39L66.84-7.39L66.84-7.39Q52.05 3.08 32.49 3.08L32.49 3.08L32.49 3.08Q16.63 3.08 8.47-2.08L8.47-2.08L8.47-2.08Q0.31-7.24 0.31-15.09L0.31-15.09L0.31-15.09Q0.31-29.11 11.24-32.65L11.24-32.65L11.24-32.65Q14.32-33.73 19.02-33.73L19.02-33.73L19.02-33.73Q23.72-33.73 29.11-31.72L29.11-31.72L29.11-31.72Q26.64-25.41 26.64-19.71L26.64-19.71L26.64-19.71Q26.64-7.39 35.42-7.39L35.42-7.39L35.42-7.39Q41.12-7.39 45.81-11.55L45.81-11.55L45.81-11.55Q50.51-15.71 50.51-20.41L50.51-20.41L50.51-20.41Q50.51-25.10 47.51-28.49L47.51-28.49L47.51-28.49Q44.51-31.88 40.04-34.57L40.04-34.57L40.04-34.57Q35.57-37.27 30.41-39.89L30.41-39.89L30.41-39.89Q25.26-42.50 20.79-46.20L20.79-46.20L20.79-46.20Q10.32-54.67 10.32-68.22L10.32-68.22L10.32-68.22Q10.32-77 14.63-83.85L14.63-83.85L14.63-83.85Q18.94-90.71 25.87-95.33L25.87-95.33L25.87-95.33Q39.73-104.72 56.75-104.72L56.75-104.72L56.75-104.72Q73.77-104.72 82.00-99.64L82.00-99.64L82.00-99.64Q90.24-94.56 90.24-85.93L90.24-85.93L90.24-85.93Q90.24-78.39 84.39-73.61L84.39-73.61L84.39-73.61Q79.31-69.61 73.15-69.61L73.15-69.61L73.15-69.61Q66.99-69.61 62.68-71.15ZM170.94-17.09L170.94-17.09L170.94-17.09Q170.94-10.32 177.87-8.32L177.87-8.32L177.87-8.32Q176.18-2.62 169.55 0.46L169.55 0.46L169.55 0.46Q164.01 3.08 157.93 3.08L157.93 3.08L157.93 3.08Q151.84 3.08 148.69 1.46L148.69 1.46L148.69 1.46Q145.53-0.15 143.84-2.77L143.84-2.77L143.84-2.77Q141.06-6.78 141.06-14.32L141.06-14.32L141.06-14.32Q141.06-18.79 143.53-31.11L143.53-31.11L145.68-42.81L145.68-42.81Q148.30-56.21 148.30-61.14L148.30-61.14L148.30-61.14Q148.30-69.76 143.53-69.76L143.53-69.76L143.53-69.76Q137.52-69.76 133.67-60.98L133.67-60.98L133.67-60.98Q132.13-57.60 131.05-52.51L131.05-52.51L120.58 0L89.63 3.08L111.34-107.80L142.30-110.88L141.06-104.72L141.06-104.72Q136.75-81.00 133.06-73.00L133.06-73.00L133.06-73.00Q141.68-81.62 157.54-81.62L157.54-81.62L157.54-81.62Q174.33-81.62 177.41-70.53L177.41-70.53L177.41-70.53Q178.49-66.99 178.49-63.91L178.49-63.91L178.49-63.91Q178.49-60.83 178.25-58.44L178.25-58.44L178.25-58.44Q178.02-56.06 177.25-51.74L177.25-51.74L175.25-40.66L171.71-23.25L171.71-23.25Q170.94-19.71 170.94-17.09ZM227.15-8.47L227.15-8.47L227.15-8.47Q222.38 3.08 207.13 3.08L207.13 3.08L207.13 3.08Q199.43 3.08 194.50-2.31L194.50-2.31L194.50-2.31Q190.50-6.78 190.50-11.86L190.50-11.86L190.50-11.86Q190.50-23.41 195.89-48.66L195.89-48.66L207.13-107.80L238.39-110.88L223.45-32.96L223.45-32.96Q220.84-21.56 220.84-17.56L220.84-17.56L220.84-17.56Q220.84-8.78 227.15-8.47ZM289.21-17.40L289.21-17.40L289.21-17.40Q281.20-9.09 266.57-9.09L266.57-9.09L266.57-9.09Q248.25-9.09 244.40-22.48L244.40-22.48L244.40-22.48Q243.17-26.49 243.17-30.95L243.17-30.95L243.17-30.95Q243.17-35.42 244.09-40.04L244.09-40.04L251.33-78.54L282.59-81.62L274.12-36.81L274.12-36.81Q273.81-34.80 273.35-32.65L273.35-32.65L273.35-32.65Q272.89-30.49 272.89-28.26L272.89-28.26L272.89-28.26Q272.89-26.03 273.66-24.56L273.66-24.56L273.66-24.56Q274.43-23.10 275.51-22.18L275.51-22.18L275.51-22.18Q277.35-20.94 280.67-20.94L280.67-20.94L280.67-20.94Q283.98-20.94 286.82-24.95L286.82-24.95L286.82-24.95Q289.67-28.95 291.06-35.88L291.06-35.88L299.53-78.54L329.87-81.62L318.32-21.10L318.32-21.10Q312.62 8.47 300.92 20.17L300.92 20.17L300.92 20.17Q294.91 26.18 287.13 28.57L287.13 28.57L287.13 28.57Q279.36 30.95 269.35 30.95L269.35 30.95L269.35 30.95Q253.18 30.95 243.94 25.87L243.94 25.87L243.94 25.87Q234.70 20.79 234.70 12.32L234.70 12.32L234.70 12.32Q234.70 6.01 239.47 2.39L239.47 2.39L239.47 2.39Q244.24-1.23 251.64-1.23L251.64-1.23L251.64-1.23Q258.10-1.23 263.03 1.54L263.03 1.54L263.03 1.54Q265.96 3.23 267.34 5.39L267.34 5.39L267.34 5.39Q263.80 8.47 263.80 13.55L263.80 13.55L263.80 13.55Q263.80 20.33 269.96 20.33L269.96 20.33L269.96 20.33Q280.13 20.33 285.98-3.08L285.98-3.08L285.98-3.08Q287.67-10.01 289.21-17.40ZM342.11-4.62L342.11-4.62L342.11-4.62Q338.49-8.62 336.88-14.94L336.88-14.94L336.88-14.94Q335.26-21.25 335.26-31.57L335.26-31.57L335.26-31.57Q335.26-41.89 338.80-51.28L338.80-51.28L338.80-51.28Q342.34-60.68 348.81-67.45L348.81-67.45L348.81-67.45Q362.05-81.62 383.92-81.62L383.92-81.62L383.92-81.62Q391.78-81.62 397.47-79.00L397.47-79.00L423.81-81.62L412.41-21.56L412.41-21.56Q411.95-19.71 411.95-16.32L411.95-16.32L411.95-16.32Q411.95-12.94 414.03-10.78L414.03-10.78L414.03-10.78Q416.11-8.62 419.19-8.32L419.19-8.32L419.19-8.32Q417.65-3.08 412.03 0L412.03 0L412.03 0Q406.41 3.08 400.09 3.08L400.09 3.08L400.09 3.08Q393.78 3.08 389.54 0.69L389.54 0.69L389.54 0.69Q385.31-1.69 384.08-5.70L384.08-5.70L384.08-5.70Q381.61-1.85 376.38 0.62L376.38 0.62L376.38 0.62Q371.14 3.08 364.13 3.08L364.13 3.08L364.13 3.08Q357.13 3.08 351.43 1.23L351.43 1.23L351.43 1.23Q345.73-0.62 342.11-4.62ZM374.60-67.14L374.60-67.14L374.60-67.14Q372.83-64.37 371.29-59.67L371.29-59.67L371.29-59.67Q369.75-54.98 367.21-42.43L367.21-42.43L367.21-42.43Q364.67-29.88 364.67-20.94L364.67-20.94L364.67-20.94Q364.67-12.01 366.06-9.39L366.06-9.39L366.06-9.39Q367.44-6.78 369.91-6.78L369.91-6.78L369.91-6.78Q374.84-6.78 378.45-11.47L378.45-11.47L378.45-11.47Q382.07-16.17 383.46-24.49L383.46-24.49L391.62-69.61L391.62-69.61Q388.39-72.38 384.62-72.38L384.62-72.38L384.62-72.38Q380.84-72.38 378.61-71.15L378.61-71.15L378.61-71.15Q376.38-69.92 374.60-67.14ZM497.27 3.08L497.27 3.08L497.27 3.08Q478.63 3.08 478.63-11.40L478.63-11.40L478.63-11.40Q478.79-15.40 480.02-22.18L480.02-22.18L482.79-36.34L482.79-36.34Q486.95-56.36 486.95-60.83L486.95-60.83L486.95-60.83Q486.95-69.76 481.71-69.76L481.71-69.76L481.71-69.76Q472.93-69.76 468.31-46.82L468.31-46.82L459.23 0L428.27 3.08L444.29-78.69L469.55-81.62L467.08-66.53L467.08-66.53Q474.32-81.62 496.50-81.62L496.50-81.62L496.50-81.62Q507.28-81.62 511.82-77.08L511.82-77.08L511.82-77.08Q516.36-72.53 516.36-62.37L516.36-62.37L516.36-62.37Q516.36-52.82 511.43-30.49L511.43-30.49L511.43-30.49Q509.12-20.48 509.12-16.71L509.12-16.71L509.12-16.71Q509.12-12.94 511.20-10.78L511.20-10.78L511.20-10.78Q513.28-8.62 516.36-8.32L516.36-8.32L516.36-8.32Q514.82-3.08 509.51 0L509.51 0L509.51 0Q504.20 3.08 497.27 3.08ZM574.73-54.05L574.73-54.05L574.73-54.05Q576.88-59.75 576.88-64.68L576.88-64.68L576.88-64.68Q576.88-73.77 569.49-73.77L569.49-73.77L569.49-73.77Q565.64-73.77 562.49-70.30L562.49-70.30L562.49-70.30Q559.33-66.84 559.33-62.52L559.33-62.52L559.33-62.52Q559.33-59.44 561.79-56.98L561.79-56.98L561.79-56.98Q565.33-53.59 574.42-48.05L574.42-48.05L574.42-48.05Q583.51-42.50 586.97-37.96L586.97-37.96L586.97-37.96Q590.44-33.42 590.44-27.18L590.44-27.18L590.44-27.18Q590.44-20.94 587.43-15.25L587.43-15.25L587.43-15.25Q584.43-9.55 579.04-5.54L579.04-5.54L579.04-5.54Q567.49 3.08 549.01 3.08L549.01 3.08L549.01 3.08Q539 3.08 531.30-2.16L531.30-2.16L531.30-2.16Q523.60-7.24 523.60-13.24L523.60-13.24L523.60-13.24Q523.60-19.25 527.99-22.79L527.99-22.79L527.99-22.79Q532.38-26.33 538.85-26.33L538.85-26.33L538.85-26.33Q545.31-26.33 549.32-23.87L549.32-23.87L549.32-23.87Q547.32-18.79 547.32-15.40L547.32-15.40L547.32-15.40Q547.32-5.24 555.94-5.24L555.94-5.24L555.94-5.24Q559.64-5.24 562.10-7.55L562.10-7.55L562.10-7.55Q564.56-9.86 564.56-13.86L564.56-13.86L564.56-13.86Q564.56-21.71 551.32-30.03L551.32-30.03L551.32-30.03Q540.54-37.11 538.08-39.89L538.08-39.89L538.08-39.89Q533.92-44.81 533.92-50.97L533.92-50.97L533.92-50.97Q533.92-57.13 536.84-62.99L536.84-62.99L536.84-62.99Q539.77-68.84 545.16-73.00L545.16-73.00L545.16-73.00Q556.40-81.62 575.96-81.62L575.96-81.62L575.96-81.62Q585.97-81.62 591.90-77.62L591.90-77.62L591.90-77.62Q597.83-73.61 597.83-66.84L597.83-66.84L597.83-66.84Q597.83-60.06 593.75-56.21L593.75-56.21L593.75-56.21Q589.67-52.36 582.27-52.36L582.27-52.36L582.27-52.36Q577.19-52.36 574.73-54.05ZM609.22-24.95L609.22-24.95L609.22-24.95Q604.30-28.49 604.30-35.27L604.30-35.27L604.30-35.27Q604.30-38.96 606.14-41.96L606.14-41.96L606.14-41.96Q607.99-44.97 611.69-45.43L611.69-45.43L642.03-45.43L642.03-45.43Q647.11-45.43 648.65-48.51L648.65-48.51L648.65-48.51Q651.11-47.12 652.19-44.20L652.19-44.20L652.19-44.20Q653.27-41.27 653.27-38.19L653.27-38.19L653.27-38.19Q653.27-35.11 650.88-32.11L650.88-32.11L650.88-32.11Q648.49-29.11 644.95-28.80L644.95-28.80L616.77-28.80L616.77-28.80Q613.54-28.80 612.00-27.80L612.00-27.80L612.00-27.80Q610.46-26.80 609.22-24.95ZM739.51-64.06L739.51-64.06L739.51-64.06Q739.51-57.60 734.12-53.59L734.12-53.59L734.12-53.59Q728.73-49.59 719.95-49.59L719.95-49.59L719.95-49.59Q716.25-49.59 714.10-50.67L714.10-50.67L714.10-50.67Q715.79-54.67 716.33-59.67L716.33-59.67L716.33-59.67Q716.87-64.68 716.87-66.07L716.87-66.07L716.87-66.07Q716.87-72.53 712.40-72.53L712.40-72.53L712.40-72.53Q709.32-72.53 705.86-68.68L705.86-68.68L705.86-68.68Q702.39-64.83 699.47-58.83L699.47-58.83L699.47-58.83Q693-44.97 693-30.95L693-30.95L693-30.95Q693-23.25 695.93-19.79L695.93-19.79L695.93-19.79Q698.85-16.32 705.32-16.32L705.32-16.32L705.32-16.32Q714.25-16.32 721.34-23.72L721.34-23.72L721.34-23.72Q723.34-26.03 724.42-28.64L724.42-28.64L724.42-28.64Q730.27-25.56 730.27-17.09L730.27-17.09L730.27-17.09Q730.27-8.47 720.72-2.77L720.72-2.77L720.72-2.77Q710.86 3.08 695.16 3.08L695.16 3.08L695.16 3.08Q663.89 3.08 663.89-30.03L663.89-30.03L663.89-30.03Q663.89-54.21 677.60-68.07L677.60-68.07L677.60-68.07Q690.84-81.62 715.18-81.62L715.18-81.62L715.18-81.62Q739.51-81.62 739.51-64.06ZM750.37-4.62L750.37-4.62L750.37-4.62Q746.75-8.62 745.13-14.94L745.13-14.94L745.13-14.94Q743.51-21.25 743.51-31.57L743.51-31.57L743.51-31.57Q743.51-41.89 747.05-51.28L747.05-51.28L747.05-51.28Q750.60-60.68 757.06-67.45L757.06-67.45L757.06-67.45Q770.31-81.62 792.18-81.62L792.18-81.62L792.18-81.62Q800.03-81.62 805.73-79.00L805.73-79.00L832.06-81.62L820.67-21.56L820.67-21.56Q820.20-19.71 820.20-16.32L820.20-16.32L820.20-16.32Q820.20-12.94 822.28-10.78L822.28-10.78L822.28-10.78Q824.36-8.62 827.44-8.32L827.44-8.32L827.44-8.32Q825.90-3.08 820.28 0L820.28 0L820.28 0Q814.66 3.08 808.35 3.08L808.35 3.08L808.35 3.08Q802.03 3.08 797.80 0.69L797.80 0.69L797.80 0.69Q793.56-1.69 792.33-5.70L792.33-5.70L792.33-5.70Q789.87-1.85 784.63 0.62L784.63 0.62L784.63 0.62Q779.39 3.08 772.39 3.08L772.39 3.08L772.39 3.08Q765.38 3.08 759.68 1.23L759.68 1.23L759.68 1.23Q753.98-0.62 750.37-4.62ZM782.86-67.14L782.86-67.14L782.86-67.14Q781.09-64.37 779.55-59.67L779.55-59.67L779.55-59.67Q778.01-54.98 775.47-42.43L775.47-42.43L775.47-42.43Q772.93-29.88 772.93-20.94L772.93-20.94L772.93-20.94Q772.93-12.01 774.31-9.39L774.31-9.39L774.31-9.39Q775.70-6.78 778.16-6.78L778.16-6.78L778.16-6.78Q783.09-6.78 786.71-11.47L786.71-11.47L786.71-11.47Q790.33-16.17 791.71-24.49L791.71-24.49L799.88-69.61L799.88-69.61Q796.64-72.38 792.87-72.38L792.87-72.38L792.87-72.38Q789.10-72.38 786.86-71.15L786.86-71.15L786.86-71.15Q784.63-69.92 782.86-67.14ZM888.58-43.27L888.58-43.27L888.58-43.27Q894.12-53.13 894.12-63.14L894.12-63.14L894.12-63.14Q894.12-69.76 889.35-69.76L889.35-69.76L889.35-69.76Q885.65-69.76 881.80-63.45L881.80-63.45L881.80-63.45Q877.80-57.13 876.57-48.97L876.57-48.97L868.56 0L836.68 3.08L852.39-78.54L877.80-81.62L875.03-66.07L875.03-66.07Q882.57-81.62 899.51-81.62L899.51-81.62L899.51-81.62Q908.45-81.62 913.30-77L913.30-77L913.30-77Q918.15-72.38 918.15-62.91L918.15-62.91L918.15-62.91Q918.15-53.44 911.91-47.43L911.91-47.43L911.91-47.43Q905.67-41.43 895.05-41.43L895.05-41.43L895.05-41.43Q890.43-41.43 888.58-43.27ZM923.08-15.40L923.08-15.40L923.08-15.40Q923.08-19.56 925.23-30.03L925.23-30.03L933.39-71.61L924.31-71.61L924.92-76.23L924.92-76.23Q943.40-81.77 961.27-95.33L961.27-95.33L968.66-95.33L964.96-78.54L976.98-78.54L975.59-71.61L963.73-71.61L955.88-30.03L955.88-30.03Q953.88-20.48 953.88-17.25L953.88-17.25L953.88-17.25Q953.88-9.86 960.34-8.32L960.34-8.32L960.34-8.32Q958.80-3.08 953.26 0L953.26 0L953.26 0Q947.72 3.08 939.86 3.08L939.86 3.08L939.86 3.08Q932.01 3.08 927.54-1.85L927.54-1.85L927.54-1.85Q923.08-6.78 923.08-15.40Z" fill="#eb6c6c"></path></g></g><style>text {
  font-size: 64px;
  font-family: Arial Black;
  dominant-baseline: central;
  text-anchor: middle;
}</style></svg>