<svg width="652.6124755859374px" height="135.21750488281248px" xmlns="http://www.w3.org/2000/svg" viewBox="-76.30623779296872 7.391247558593761 652.6124755859374 135.21750488281248" style="background: rgba(0, 0, 0, 0);" preserveAspectRatio="xMidYMid"><defs><filter id="editing-extrude-glow"><feFlood flood-color="#333333" result="flood-1"></feFlood><feMorphology operator="erode" radius="1" in="SourceAlpha" result="erode"></feMorphology><feComposite operator="in" in="flood-1" in2="erode" result="comp1"></feComposite><feConvolveMatrix order="3,3" divisor="1" in="comp1" result="convolve" kernelMatrix="0 0 0 1 1 1 0 0 0"></feConvolveMatrix><feOffset dx="-3" dy="0" in="convolve" result="extrude"></feOffset><feComposite operator="in" in="flood-1" in2="extrude" result="comp-extrude"></feComposite><feFlood flood-color="#000000" result="flood-2"></feFlood><feComposite operator="in" in="flood-2" in2="SourceAlpha" result="comp2"></feComposite><feMorphology operator="dilate" radius="1" in="comp2" result="dilate"></feMorphology><feOffset dx="-4.5" dy="0" in="dilate" result="offset"></feOffset><feGaussianBlur in="offset" stdDeviation="5.8" result="blur"></feGaussianBlur><feComponentTransfer in="blur" result="shadow"><feFuncA type="linear" slope="0.8" intercept="-0.2"></feFuncA></feComponentTransfer><feMerge><feMergeNode in="shadow"></feMergeNode><feMergeNode in="comp-extrude"></feMergeNode><feMergeNode in="SourceGraphic"></feMergeNode></feMerge></filter></defs><g filter="url(#editing-extrude-glow)"><g transform="translate(19.307504266500473, 108.6150016784668)"><path d="M29.71-33.73L29.71-33.73L29.71-33.73Q30.81-35.92 30.81-37.96L30.81-37.96L30.81-37.96Q30.81-40.00 30.59-41.14L30.59-41.14L30.59-41.14Q30.37-42.27 29.86-43.14L29.86-43.14L29.86-43.14Q28.76-45.04 26.57-45.04L26.57-45.04L26.57-45.04Q23.87-45.04 21.68-43.07L21.68-43.07L21.68-43.07Q19.34-41.03 19.34-37.81L19.34-37.81L19.34-37.81Q19.34-35.77 20.77-34.20L20.77-34.20L20.77-34.20Q22.19-32.63 24.38-31.17L24.38-31.17L24.38-31.17Q26.57-29.71 29.05-28.25L29.05-28.25L29.05-28.25Q31.54-26.79 33.73-25.04L33.73-25.04L33.73-25.04Q38.76-21.02 38.76-15.62L38.76-15.62L38.76-15.62Q38.76-11.97 36.83-8.87L36.83-8.87L36.83-8.87Q34.89-5.77 31.68-3.50L31.68-3.50L31.68-3.50Q24.67 1.46 15.40 1.46L15.40 1.46L15.40 1.46Q7.88 1.46 4.01-0.99L4.01-0.99L4.01-0.99Q0.15-3.43 0.15-7.15L0.15-7.15L0.15-7.15Q0.15-13.80 5.33-15.48L5.33-15.48L5.33-15.48Q6.79-15.99 9.02-15.99L9.02-15.99L9.02-15.99Q11.24-15.99 13.80-15.04L13.80-15.04L13.80-15.04Q12.63-12.04 12.63-9.34L12.63-9.34L12.63-9.34Q12.63-3.50 16.79-3.50L16.79-3.50L16.79-3.50Q19.49-3.50 21.72-5.47L21.72-5.47L21.72-5.47Q23.94-7.45 23.94-9.67L23.94-9.67L23.94-9.67Q23.94-11.90 22.52-13.50L22.52-13.50L22.52-13.50Q21.10-15.11 18.98-16.39L18.98-16.39L18.98-16.39Q16.86-17.67 14.42-18.91L14.42-18.91L14.42-18.91Q11.97-20.15 9.85-21.90L9.85-21.90L9.85-21.90Q4.89-25.91 4.89-32.34L4.89-32.34L4.89-32.34Q4.89-36.50 6.93-39.75L6.93-39.75L6.93-39.75Q8.98-43.00 12.26-45.19L12.26-45.19L12.26-45.19Q18.83-49.64 26.90-49.64L26.90-49.64L26.90-49.64Q34.97-49.64 38.87-47.23L38.87-47.23L38.87-47.23Q42.78-44.82 42.78-40.73L42.78-40.73L42.78-40.73Q42.78-37.16 40.00-34.89L40.00-34.89L40.00-34.89Q37.59-33.00 34.67-33.00L34.67-33.00L34.67-33.00Q31.75-33.00 29.71-33.73ZM81.03-8.10L81.03-8.10L81.03-8.10Q81.03-4.89 84.31-3.94L84.31-3.94L84.31-3.94Q83.51-1.24 80.37 0.22L80.37 0.22L80.37 0.22Q77.75 1.46 74.86 1.46L74.86 1.46L74.86 1.46Q71.98 1.46 70.48 0.69L70.48 0.69L70.48 0.69Q68.98-0.07 68.18-1.31L68.18-1.31L68.18-1.31Q66.87-3.21 66.87-6.79L66.87-6.79L66.87-6.79Q66.87-8.91 68.04-14.75L68.04-14.75L69.06-20.29L69.06-20.29Q70.30-26.64 70.30-28.98L70.30-28.98L70.30-28.98Q70.30-33.07 68.04-33.07L68.04-33.07L68.04-33.07Q65.19-33.07 63.36-28.91L63.36-28.91L63.36-28.91Q62.63-27.30 62.12-24.89L62.12-24.89L57.16 0L42.49 1.46L52.78-51.10L67.45-52.56L66.87-49.64L66.87-49.64Q64.82-38.40 63.07-34.60L63.07-34.60L63.07-34.60Q67.16-38.69 74.68-38.69L74.68-38.69L74.68-38.69Q82.64-38.69 84.10-33.43L84.10-33.43L84.10-33.43Q84.61-31.75 84.61-30.29L84.61-30.29L84.61-30.29Q84.61-28.83 84.50-27.70L84.50-27.70L84.50-27.70Q84.39-26.57 84.02-24.53L84.02-24.53L83.07-19.27L81.39-11.02L81.39-11.02Q81.03-9.34 81.03-8.10ZM107.67-4.01L107.67-4.01L107.67-4.01Q105.41 1.46 98.18 1.46L98.18 1.46L98.18 1.46Q94.53 1.46 92.20-1.09L92.20-1.09L92.20-1.09Q90.30-3.21 90.30-5.62L90.30-5.62L90.30-5.62Q90.30-11.10 92.86-23.07L92.86-23.07L98.18-51.10L113.00-52.56L105.92-15.62L105.92-15.62Q104.68-10.22 104.68-8.32L104.68-8.32L104.68-8.32Q104.68-4.16 107.67-4.01ZM137.09-8.25L137.09-8.25L137.09-8.25Q133.30-4.31 126.36-4.31L126.36-4.31L126.36-4.31Q117.68-4.31 115.85-10.66L115.85-10.66L115.85-10.66Q115.27-12.56 115.27-14.67L115.27-14.67L115.27-14.67Q115.27-16.79 115.70-18.98L115.70-18.98L119.14-37.23L133.95-38.69L129.94-17.45L129.94-17.45Q129.79-16.50 129.57-15.48L129.57-15.48L129.57-15.48Q129.36-14.45 129.36-13.40L129.36-13.40L129.36-13.40Q129.36-12.34 129.72-11.64L129.72-11.64L129.72-11.64Q130.09-10.95 130.60-10.51L130.60-10.51L130.60-10.51Q131.47-9.93 133.04-9.93L133.04-9.93L133.04-9.93Q134.61-9.93 135.96-11.83L135.96-11.83L135.96-11.83Q137.31-13.72 137.97-17.01L137.97-17.01L141.98-37.23L156.37-38.69L150.89-10.00L150.89-10.00Q148.19 4.01 142.64 9.56L142.64 9.56L142.64 9.56Q139.79 12.41 136.11 13.54L136.11 13.54L136.11 13.54Q132.42 14.67 127.68 14.67L127.68 14.67L127.68 14.67Q120.01 14.67 115.63 12.26L115.63 12.26L115.63 12.26Q111.25 9.85 111.25 5.84L111.25 5.84L111.25 5.84Q111.25 2.85 113.52 1.13L113.52 1.13L113.52 1.13Q115.78-0.58 119.28-0.58L119.28-0.58L119.28-0.58Q122.35-0.58 124.68 0.73L124.68 0.73L124.68 0.73Q126.07 1.53 126.73 2.55L126.73 2.55L126.73 2.55Q125.05 4.01 125.05 6.42L125.05 6.42L125.05 6.42Q125.05 9.64 127.97 9.64L127.97 9.64L127.97 9.64Q132.79 9.64 135.56-1.46L135.56-1.46L135.56-1.46Q136.36-4.75 137.09-8.25ZM162.17-2.19L162.17-2.19L162.17-2.19Q160.45-4.09 159.69-7.08L159.69-7.08L159.69-7.08Q158.92-10.07 158.92-14.96L158.92-14.96L158.92-14.96Q158.92-19.86 160.60-24.31L160.60-24.31L160.60-24.31Q162.28-28.76 165.34-31.97L165.34-31.97L165.34-31.97Q171.62-38.69 181.99-38.69L181.99-38.69L181.99-38.69Q185.71-38.69 188.41-37.45L188.41-37.45L200.90-38.69L195.49-10.22L195.49-10.22Q195.27-9.34 195.27-7.74L195.27-7.74L195.27-7.74Q195.27-6.13 196.26-5.11L196.26-5.11L196.26-5.11Q197.25-4.09 198.71-3.94L198.71-3.94L198.71-3.94Q197.98-1.46 195.31 0L195.31 0L195.31 0Q192.65 1.46 189.65 1.46L189.65 1.46L189.65 1.46Q186.66 1.46 184.65 0.33L184.65 0.33L184.65 0.33Q182.65-0.80 182.06-2.70L182.06-2.70L182.06-2.70Q180.89-0.88 178.41 0.29L178.41 0.29L178.41 0.29Q175.93 1.46 172.61 1.46L172.61 1.46L172.61 1.46Q169.29 1.46 166.59 0.58L166.59 0.58L166.59 0.58Q163.88-0.29 162.17-2.19ZM177.57-31.83L177.57-31.83L177.57-31.83Q176.73-30.51 176.00-28.29L176.00-28.29L176.00-28.29Q175.27-26.06 174.07-20.11L174.07-20.11L174.07-20.11Q172.86-14.16 172.86-9.93L172.86-9.93L172.86-9.93Q172.86-5.69 173.52-4.45L173.52-4.45L173.52-4.45Q174.18-3.21 175.35-3.21L175.35-3.21L175.35-3.21Q177.68-3.21 179.40-5.44L179.40-5.44L179.40-5.44Q181.11-7.66 181.77-11.61L181.77-11.61L185.64-33.00L185.64-33.00Q184.11-34.31 182.32-34.31L182.32-34.31L182.32-34.31Q180.53-34.31 179.47-33.73L179.47-33.73L179.47-33.73Q178.41-33.14 177.57-31.83ZM235.72 1.46L235.72 1.46L235.72 1.46Q226.88 1.46 226.88-5.40L226.88-5.40L226.88-5.40Q226.96-7.30 227.54-10.51L227.54-10.51L228.85-17.23L228.85-17.23Q230.83-26.72 230.83-28.83L230.83-28.83L230.83-28.83Q230.83-33.07 228.34-33.07L228.34-33.07L228.34-33.07Q224.18-33.07 221.99-22.19L221.99-22.19L217.69 0L203.01 1.46L210.60-37.30L222.58-38.69L221.41-31.54L221.41-31.54Q224.84-38.69 235.35-38.69L235.35-38.69L235.35-38.69Q240.46-38.69 242.62-36.54L242.62-36.54L242.62-36.54Q244.77-34.38 244.77-29.56L244.77-29.56L244.77-29.56Q244.77-25.04 242.43-14.45L242.43-14.45L242.43-14.45Q241.34-9.71 241.34-7.92L241.34-7.92L241.34-7.92Q241.34-6.13 242.32-5.11L242.32-5.11L242.32-5.11Q243.31-4.09 244.77-3.94L244.77-3.94L244.77-3.94Q244.04-1.46 241.52 0L241.52 0L241.52 0Q239.00 1.46 235.72 1.46ZM272.44-25.62L272.44-25.62L272.44-25.62Q273.46-28.32 273.46-30.66L273.46-30.66L273.46-30.66Q273.46-34.97 269.95-34.97L269.95-34.97L269.95-34.97Q268.13-34.97 266.63-33.32L266.63-33.32L266.63-33.32Q265.14-31.68 265.14-29.64L265.14-29.64L265.14-29.64Q265.14-28.18 266.30-27.01L266.30-27.01L266.30-27.01Q267.98-25.40 272.29-22.78L272.29-22.78L272.29-22.78Q276.60-20.15 278.24-17.99L278.24-17.99L278.24-17.99Q279.88-15.84 279.88-12.88L279.88-12.88L279.88-12.88Q279.88-9.93 278.46-7.23L278.46-7.23L278.46-7.23Q277.03-4.53 274.48-2.63L274.48-2.63L274.48-2.63Q269.00 1.46 260.24 1.46L260.24 1.46L260.24 1.46Q255.50 1.46 251.85-1.02L251.85-1.02L251.85-1.02Q248.20-3.43 248.20-6.28L248.20-6.28L248.20-6.28Q248.20-9.13 250.28-10.80L250.28-10.80L250.28-10.80Q252.36-12.48 255.43-12.48L255.43-12.48L255.43-12.48Q258.49-12.48 260.39-11.31L260.39-11.31L260.39-11.31Q259.44-8.91 259.44-7.30L259.44-7.30L259.44-7.30Q259.44-2.48 263.53-2.48L263.53-2.48L263.53-2.48Q265.28-2.48 266.45-3.58L266.45-3.58L266.45-3.58Q267.62-4.67 267.62-6.57L267.62-6.57L267.62-6.57Q267.62-10.29 261.34-14.23L261.34-14.23L261.34-14.23Q256.23-17.59 255.06-18.91L255.06-18.91L255.06-18.91Q253.09-21.24 253.09-24.16L253.09-24.16L253.09-24.16Q253.09-27.08 254.48-29.86L254.48-29.86L254.48-29.86Q255.86-32.63 258.42-34.60L258.42-34.60L258.42-34.60Q263.75-38.69 273.02-38.69L273.02-38.69L273.02-38.69Q277.76-38.69 280.58-36.79L280.58-36.79L280.58-36.79Q283.39-34.89 283.39-31.68L283.39-31.68L283.39-31.68Q283.39-28.47 281.45-26.64L281.45-26.64L281.45-26.64Q279.52-24.82 276.01-24.82L276.01-24.82L276.01-24.82Q273.60-24.82 272.44-25.62ZM288.79-11.83L288.79-11.83L288.79-11.83Q286.45-13.50 286.45-16.72L286.45-16.72L286.45-16.72Q286.45-18.47 287.33-19.89L287.33-19.89L287.33-19.89Q288.20-21.32 289.96-21.54L289.96-21.54L304.34-21.54L304.34-21.54Q306.75-21.54 307.48-22.99L307.48-22.99L307.48-22.99Q308.64-22.34 309.15-20.95L309.15-20.95L309.15-20.95Q309.67-19.56 309.67-18.10L309.67-18.10L309.67-18.10Q309.67-16.64 308.53-15.22L308.53-15.22L308.53-15.22Q307.40-13.80 305.72-13.65L305.72-13.65L292.36-13.65L292.36-13.65Q290.83-13.65 290.10-13.18L290.10-13.18L290.10-13.18Q289.37-12.70 288.79-11.83ZM350.55-30.37L350.55-30.37L350.55-30.37Q350.55-27.30 347.99-25.40L347.99-25.40L347.99-25.40Q345.44-23.51 341.27-23.51L341.27-23.51L341.27-23.51Q339.52-23.51 338.50-24.02L338.50-24.02L338.50-24.02Q339.30-25.91 339.56-28.29L339.56-28.29L339.56-28.29Q339.81-30.66 339.81-31.32L339.81-31.32L339.81-31.32Q339.81-34.38 337.70-34.38L337.70-34.38L337.70-34.38Q336.24-34.38 334.60-32.56L334.60-32.56L334.60-32.56Q332.95-30.73 331.57-27.89L331.57-27.89L331.57-27.89Q328.50-21.32 328.50-14.67L328.50-14.67L328.50-14.67Q328.50-11.02 329.89-9.38L329.89-9.38L329.89-9.38Q331.27-7.74 334.34-7.74L334.34-7.74L334.34-7.74Q338.57-7.74 341.93-11.24L341.93-11.24L341.93-11.24Q342.88-12.34 343.39-13.58L343.39-13.58L343.39-13.58Q346.17-12.12 346.17-8.10L346.17-8.10L346.17-8.10Q346.17-4.01 341.64-1.31L341.64-1.31L341.64-1.31Q336.97 1.46 329.52 1.46L329.52 1.46L329.52 1.46Q314.70 1.46 314.70-14.23L314.70-14.23L314.70-14.23Q314.70-25.70 321.20-32.27L321.20-32.27L321.20-32.27Q327.48-38.69 339.01-38.69L339.01-38.69L339.01-38.69Q350.55-38.69 350.55-30.37ZM355.69-2.19L355.69-2.19L355.69-2.19Q353.98-4.09 353.21-7.08L353.21-7.08L353.21-7.08Q352.44-10.07 352.44-14.96L352.44-14.96L352.44-14.96Q352.44-19.86 354.12-24.31L354.12-24.31L354.12-24.31Q355.80-28.76 358.87-31.97L358.87-31.97L358.87-31.97Q365.15-38.69 375.51-38.69L375.51-38.69L375.51-38.69Q379.23-38.69 381.94-37.45L381.94-37.45L394.42-38.69L389.02-10.22L389.02-10.22Q388.80-9.34 388.80-7.74L388.80-7.74L388.80-7.74Q388.80-6.13 389.78-5.11L389.78-5.11L389.78-5.11Q390.77-4.09 392.23-3.94L392.23-3.94L392.23-3.94Q391.50-1.46 388.83 0L388.83 0L388.83 0Q386.17 1.46 383.18 1.46L383.18 1.46L383.18 1.46Q380.18 1.46 378.18 0.33L378.18 0.33L378.18 0.33Q376.17-0.80 375.58-2.70L375.58-2.70L375.58-2.70Q374.42-0.88 371.93 0.29L371.93 0.29L371.93 0.29Q369.45 1.46 366.13 1.46L366.13 1.46L366.13 1.46Q362.81 1.46 360.11 0.58L360.11 0.58L360.11 0.58Q357.41-0.29 355.69-2.19ZM371.10-31.83L371.10-31.83L371.10-31.83Q370.26-30.51 369.53-28.29L369.53-28.29L369.53-28.29Q368.80-26.06 367.59-20.11L367.59-20.11L367.59-20.11Q366.39-14.16 366.39-9.93L366.39-9.93L366.39-9.93Q366.39-5.69 367.04-4.45L367.04-4.45L367.04-4.45Q367.70-3.21 368.87-3.21L368.87-3.21L368.87-3.21Q371.20-3.21 372.92-5.44L372.92-5.44L372.92-5.44Q374.64-7.66 375.29-11.61L375.29-11.61L379.16-33.00L379.16-33.00Q377.63-34.31 375.84-34.31L375.84-34.31L375.84-34.31Q374.05-34.31 372.99-33.73L372.99-33.73L372.99-33.73Q371.93-33.14 371.10-31.83ZM421.21-20.51L421.21-20.51L421.21-20.51Q423.84-25.18 423.84-29.93L423.84-29.93L423.84-29.93Q423.84-33.07 421.57-33.07L421.57-33.07L421.57-33.07Q419.82-33.07 418.00-30.08L418.00-30.08L418.00-30.08Q416.10-27.08 415.52-23.21L415.52-23.21L411.72 0L396.61 1.46L404.05-37.23L416.10-38.69L414.79-31.32L414.79-31.32Q418.36-38.69 426.39-38.69L426.39-38.69L426.39-38.69Q430.63-38.69 432.93-36.50L432.93-36.50L432.93-36.50Q435.23-34.31 435.23-29.82L435.23-29.82L435.23-29.82Q435.23-25.33 432.27-22.48L432.27-22.48L432.27-22.48Q429.31-19.64 424.28-19.64L424.28-19.64L424.28-19.64Q422.09-19.64 421.21-20.51ZM437.56-7.30L437.56-7.30L437.56-7.30Q437.56-9.27 438.58-14.23L438.58-14.23L442.45-33.95L438.15-33.95L438.44-36.13L438.44-36.13Q447.20-38.76 455.67-45.19L455.67-45.19L459.17-45.19L457.42-37.23L463.11-37.23L462.45-33.95L456.83-33.95L453.11-14.23L453.11-14.23Q452.16-9.71 452.16-8.18L452.16-8.18L452.16-8.18Q452.16-4.67 455.23-3.94L455.23-3.94L455.23-3.94Q454.50-1.46 451.87 0L451.87 0L451.87 0Q449.24 1.46 445.52 1.46L445.52 1.46L445.52 1.46Q441.80 1.46 439.68-0.88L439.68-0.88L439.68-0.88Q437.56-3.21 437.56-7.30Z" fill="#eb6c6c"></path></g></g><style>text {
  font-size: 64px;
  font-family: Arial Black;
  dominant-baseline: central;
  text-anchor: middle;
}</style></svg>